<?xml version="1.0"?>
<svg version="1.1" xmlns="http://www.w3.org/2000/svg" width="216" height="62" style=""><path fill="#c73e3e" d="M24.6484375,39.10546875l1.953125,0q2.87109375,0,4.23828125-0.95703125t1.3671875-3.0078125q0-2.03125-1.396484375-2.890625t-4.326171875-0.859375l-1.8359375,0l0,7.71484375z M24.6484375,44.02734375l0,10.95703125l-6.0546875,0l0-28.5546875l8.3203125,0q5.8203125,0,8.61328125,2.119140625t2.79296875,6.435546875q0,2.51953125-1.38671875,4.482421875t-3.92578125,3.076171875q6.4453125,9.62890625,8.3984375,12.44140625l-6.71875,0l-6.81640625-10.95703125l-3.22265625,0z M64.1947265625,54.984375l-16.4453125,0l0-28.5546875l16.4453125,0l0,4.9609375l-10.390625,0l0,6.26953125l9.66796875,0l0,4.9609375l-9.66796875,0l0,7.36328125l10.390625,0l0,5z M89.190234375,26.4296875l6.11328125,0l-9.70703125,28.5546875l-6.6015625,0l-9.6875-28.5546875l6.11328125,0l5.37109375,16.9921875q0.44921875,1.50390625,0.927734375,3.505859375t0.595703125,2.783203125q0.21484375-1.796875,1.46484375-6.2890625z M101.6466796875,54.984375l0-28.5546875l6.0546875,0l0,28.5546875l-6.0546875,0z M134.49375,47.0546875q0,3.8671875-2.783203125,6.09375t-7.744140625,2.2265625q-4.5703125,0-8.0859375-1.71875l0-5.625q2.890625,1.2890625,4.892578125,1.81640625t3.662109375,0.52734375q1.9921875,0,3.056640625-0.76171875t1.064453125-2.265625q0-0.83984375-0.46875-1.494140625t-1.376953125-1.259765625t-3.701171875-1.93359375q-2.6171875-1.23046875-3.92578125-2.36328125t-2.08984375-2.63671875t-0.78125-3.515625q0-3.7890625,2.568359375-5.95703125t7.099609375-2.16796875q2.2265625,0,4.248046875,0.52734375t4.228515625,1.484375l-1.953125,4.70703125q-2.28515625-0.9375-3.779296875-1.30859375t-2.939453125-0.37109375q-1.71875,0-2.63671875,0.80078125t-0.91796875,2.08984375q0,0.80078125,0.37109375,1.396484375t1.181640625,1.15234375t3.837890625,2.001953125q4.00390625,1.9140625,5.48828125,3.837890625t1.484375,4.716796875z M165.6611328125,26.4296875l0,18.4765625q0,3.1640625-1.416015625,5.546875t-4.091796875,3.65234375t-6.328125,1.26953125q-5.5078125,0-8.5546875-2.822265625t-3.046875-7.724609375l0-18.3984375l6.03515625,0l0,17.48046875q0,3.30078125,1.328125,4.84375t4.39453125,1.54296875q2.96875,0,4.306640625-1.552734375t1.337890625-4.873046875l0-17.44140625l6.03515625,0z M187.492578125,54.984375l-6.875-22.40234375l-0.17578125,0q0.37109375,6.8359375,0.37109375,9.12109375l0,13.28125l-5.41015625,0l0-28.5546875l8.2421875,0l6.7578125,21.8359375l0.1171875,0l7.16796875-21.8359375l8.2421875,0l0,28.5546875l-5.64453125,0l0-13.515625q0-0.95703125,0.029296875-2.20703125t0.263671875-6.640625l-0.17578125,0l-7.36328125,22.36328125l-5.546875,0z"/><path fill="#" d=""/></svg>
