<?xml version="1.0"?>
<svg version="1.1" xmlns="http://www.w3.org/2000/svg" width="736" height="171" style=""><path fill="#c73e3e" d="M39.12109375,105.763671875l4.8828125,0q7.177734375,0,10.595703125-2.392578125t3.41796875-7.51953125q0-5.078125-3.4912109375-7.2265625t-10.8154296875-2.1484375l-4.58984375,0l0,19.287109375z M39.12109375,118.068359375l0,27.392578125l-15.13671875,0l0-71.38671875l20.80078125,0q14.55078125,0,21.533203125,5.2978515625t6.982421875,16.0888671875q0,6.298828125-3.466796875,11.2060546875t-9.814453125,7.6904296875q16.11328125,24.072265625,20.99609375,31.103515625l-16.796875,0l-17.041015625-27.392578125l-8.056640625,0z M137.98681640625,145.4609375l-41.11328125,0l0-71.38671875l41.11328125,0l0,12.40234375l-25.9765625,0l0,15.673828125l24.169921875,0l0,12.40234375l-24.169921875,0l0,18.408203125l25.9765625,0l0,12.5z M200.4755859375,74.07421875l15.283203125,0l-24.267578125,71.38671875l-16.50390625,0l-24.21875-71.38671875l15.283203125,0l13.427734375,42.48046875q1.123046875,3.759765625,2.3193359375,8.7646484375t1.4892578125,6.9580078125q0.537109375-4.4921875,3.662109375-15.72265625z M231.61669921875,145.4609375l0-71.38671875l15.13671875,0l0,71.38671875l-15.13671875,0z M313.734375,125.63671875q0,9.66796875-6.9580078125,15.234375t-19.3603515625,5.56640625q-11.42578125,0-20.21484375-4.296875l0-14.0625q7.2265625,3.22265625,12.2314453125,4.541015625t9.1552734375,1.318359375q4.98046875,0,7.6416015625-1.904296875t2.6611328125-5.6640625q0-2.099609375-1.171875-3.7353515625t-3.4423828125-3.1494140625t-9.2529296875-4.833984375q-6.54296875-3.076171875-9.814453125-5.908203125t-5.224609375-6.591796875t-1.953125-8.7890625q0-9.47265625,6.4208984375-14.892578125t17.7490234375-5.419921875q5.56640625,0,10.6201171875,1.318359375t10.5712890625,3.7109375l-4.8828125,11.767578125q-5.712890625-2.34375-9.4482421875-3.271484375t-7.3486328125-0.927734375q-4.296875,0-6.591796875,2.001953125t-2.294921875,5.224609375q0,2.001953125,0.927734375,3.4912109375t2.9541015625,2.880859375t9.5947265625,5.0048828125q10.009765625,4.78515625,13.720703125,9.5947265625t3.7109375,11.7919921875z M391.65283203125,74.07421875l0,46.19140625q0,7.91015625-3.5400390625,13.8671875t-10.2294921875,9.130859375t-15.8203125,3.173828125q-13.76953125,0-21.38671875-7.0556640625t-7.6171875-19.3115234375l0-45.99609375l15.087890625,0l0,43.701171875q0,8.251953125,3.3203125,12.109375t10.986328125,3.857421875q7.421875,0,10.7666015625-3.8818359375t3.3447265625-12.1826171875l0-43.603515625l15.087890625,0z M446.2314453125,145.4609375l-17.1875-56.005859375l-0.439453125,0q0.927734375,17.08984375,0.927734375,22.802734375l0,33.203125l-13.525390625,0l0-71.38671875l20.60546875,0l16.89453125,54.58984375l0.29296875,0l17.919921875-54.58984375l20.60546875,0l0,71.38671875l-14.111328125,0l0-33.7890625q0-2.392578125,0.0732421875-5.517578125t0.6591796875-16.6015625l-0.439453125,0l-18.408203125,55.908203125l-13.8671875,0z"/><path fill="#" d=""/></svg>
