<?xml version="1.0"?>
<svg version="1.1" xmlns="http://www.w3.org/2000/svg" width="457" height="109" style=""><path fill="#c73e3e" d="M35.26171875,71.521484375l4.1015625,0q6.029296875,0,8.900390625-2.009765625t2.87109375-6.31640625q0-4.265625-2.9326171875-6.0703125t-9.0849609375-1.8046875l-3.85546875,0l0,16.201171875z M35.26171875,81.857421875l0,23.009765625l-12.71484375,0l0-59.96484375l17.47265625,0q12.22265625,0,18.087890625,4.4501953125t5.865234375,13.5146484375q0,5.291015625-2.912109375,9.4130859375t-8.244140625,6.4599609375q13.53515625,20.220703125,17.63671875,26.126953125l-14.109375,0l-14.314453125-23.009765625l-6.767578125,0z M118.30892578125,104.8671875l-34.53515625,0l0-59.96484375l34.53515625,0l0,10.41796875l-21.8203125,0l0,13.166015625l20.302734375,0l0,10.41796875l-20.302734375,0l0,15.462890625l21.8203125,0l0,10.5z M170.7994921875,44.90234375l12.837890625,0l-20.384765625,59.96484375l-13.86328125,0l-20.34375-59.96484375l12.837890625,0l11.279296875,35.68359375q0.943359375,3.158203125,1.9482421875,7.3623046875t1.2509765625,5.8447265625q0.451171875-3.7734375,3.076171875-13.20703125z M196.95802734375,104.8671875l0-59.96484375l12.71484375,0l0,59.96484375l-12.71484375,0z M265.936875,88.21484375q0,8.12109375-5.8447265625,12.796875t-16.2626953125,4.67578125q-9.59765625,0-16.98046875-3.609375l0-11.8125q6.0703125,2.70703125,10.2744140625,3.814453125t7.6904296875,1.107421875q4.18359375,0,6.4189453125-1.599609375t2.2353515625-4.7578125q0-1.763671875-0.984375-3.1376953125t-2.8916015625-2.6455078125t-7.7724609375-4.060546875q-5.49609375-2.583984375-8.244140625-4.962890625t-4.388671875-5.537109375t-1.640625-7.3828125q0-7.95703125,5.3935546875-12.509765625t14.9091796875-4.552734375q4.67578125,0,8.9208984375,1.107421875t8.8798828125,3.1171875l-4.1015625,9.884765625q-4.798828125-1.96875-7.9365234375-2.748046875t-6.1728515625-0.779296875q-3.609375,0-5.537109375,1.681640625t-1.927734375,4.388671875q0,1.681640625,0.779296875,2.9326171875t2.4814453125,2.419921875t8.0595703125,4.2041015625q8.408203125,4.01953125,11.525390625,8.0595703125t3.1171875,9.9052734375z M331.38837890625,44.90234375l0,38.80078125q0,6.64453125-2.9736328125,11.6484375t-8.5927734375,7.669921875t-13.2890625,2.666015625q-11.56640625,0-17.96484375-5.9267578125t-6.3984375-16.2216796875l0-38.63671875l12.673828125,0l0,36.708984375q0,6.931640625,2.7890625,10.171875t9.228515625,3.240234375q6.234375,0,9.0439453125-3.2607421875t2.8095703125-10.2333984375l0-36.626953125l12.673828125,0z M377.2344140625,104.8671875l-14.4375-47.044921875l-0.369140625,0q0.779296875,14.35546875,0.779296875,19.154296875l0,27.890625l-11.361328125,0l0-59.96484375l17.30859375,0l14.19140625,45.85546875l0.24609375,0l15.052734375-45.85546875l17.30859375,0l0,59.96484375l-11.853515625,0l0-28.3828125q0-2.009765625,0.0615234375-4.634765625t0.5537109375-13.9453125l-0.369140625,0l-15.462890625,46.962890625l-11.6484375,0z"/><path fill="#" d=""/></svg>
